<svg xmlns="http://www.w3.org/2000/svg" viewBox="0 0 32 32">
  <defs>
    <linearGradient id="sea-sky" x1="0" y1="0" x2="0" y2="1">
      <stop offset="0%" stop-color="#bfe6ff"/>
      <stop offset="55%" stop-color="#6fc3e8"/>
      <stop offset="55%" stop-color="#1f6fa8"/>
      <stop offset="100%" stop-color="#0d4c7a"/>
    </linearGradient>
  </defs>
  <rect width="32" height="32" rx="7" fill="url(#sea-sky)"/>
  <circle cx="24" cy="8" r="3.4" fill="#ffe9a8"/>
  <path d="M4 20 q4 -2.4 8 0 q4 2.4 8 0 q4 -2.4 8 0" fill="none" stroke="#eaf7ff" stroke-width="1.1" opacity="0.55"/>
  <path d="M14 17 L14 8 L20 11.5 Z" fill="#f4f4f4"/>
  <rect x="13.4" y="8" width="0.9" height="9" fill="#5b3a22"/>
  <path d="M8 21 L24 21 L21.5 25.5 Q16 26.6 10.5 25.5 Z" fill="#8a5a34"/>
  <path d="M8 21 L24 21 L23 22.6 L9 22.6 Z" fill="#a5744a"/>
  <path d="M2 24.5 q6 -2.4 14 0 q8 2.4 14 0" fill="none" stroke="#eaf7ff" stroke-width="1.3" opacity="0.75"/>
</svg>
